<?xml version="1.0" encoding="UTF-8"?>
<svg id="Layer_1" data-name="Layer 1" xmlns="http://www.w3.org/2000/svg" viewBox="0 0 2000 2000">
  <defs>
    <style>
      .cls-1 {
        fill: #e5f5fd;
      }

      .cls-1, .cls-2, .cls-3, .cls-4 {
        stroke-width: 0px;
      }

      .cls-2, .cls-5 {
        fill: #bab7c4;
      }

      .cls-6 {
        letter-spacing: -.06em;
      }

      .cls-7 {
        letter-spacing: -.03em;
      }

      .cls-3 {
        fill: #a3a0b1;
      }

      .cls-5 {
        font-family: EchomotorsDemo, 'Echomotors Demo';
        font-size: 103.42px;
      }

      .cls-4 {
        fill: #e7f6fd;
      }

      .cls-8 {
        letter-spacing: -.2em;
      }

      .cls-9 {
        letter-spacing: -.13em;
      }
    </style>
  </defs>
  <text class="cls-5" transform="translate(183.4 1418.9)"><tspan class="cls-6" x="0" y="0">J</tspan><tspan class="cls-8" x="73.74" y="0">ay</tspan><tspan x="205.08" y="0">a mahadev har</tspan><tspan class="cls-7" x="1232.76" y="0">d</tspan><tspan class="cls-9" x="1307.22" y="0">w</tspan><tspan x="1408.68" y="0">are</tspan></text>
  <g>
    <path class="cls-4" d="M1532.55,696.91l-1.62.02c-5.79.09-10.6-4.58-10.68-10.36l-.07-4.67-.62-40.47c-.66.14-1.34.22-2.03.23l-17.89.27c-1.62.02-3.16-.32-4.54-.96-3.57-1.65-6.08-5.23-6.14-9.41l-.11-7.05-10.31.16c-.51,0-1.01-.02-1.5-.09l.19,12.32c.09,5.79-4.58,10.6-10.36,10.68l-23.45.36c-5.79.09-10.6-4.58-10.68-10.36l-.94-61.5c-.09-5.79,4.58-10.6,10.36-10.68l23.45-.36c5.79-.09,10.6,4.58,10.68,10.36l.19,12.32c.49-.08.99-.12,1.5-.13l10.31-.16-.11-7.05c-.09-5.79,4.58-10.6,10.36-10.68l17.89-.27c1.13-.02,2.22.15,3.24.46,1.7-3.39,5.2-5.76,9.24-5.82l36.97-.56c5.79-.09,10.6,4.58,10.68,10.36l.08,5.37c4.31-.61,8.7-1.02,13.17-1.02,98.48,0,106.01,92.3,106.89,150.42.03,2.02,0,4.04-.08,6.03-18.72-30.99-18.29-97.68-91.81-97.68-9.44,0-18.56,1.53-27.23,3.99l.68,44.69c.09,5.79-4.58,10.6-10.36,10.68l-1.62.02-33.74.52Z"/>
    <path class="cls-4" d="M1530.13,709.28h39.06c1.43,0,2.6,1.16,2.6,2.6v123.32h-44.26v-123.32c0-1.43,1.16-2.6,2.6-2.6Z"/>
    <g>
      <polygon class="cls-4" points="183.4 1124.67 518.07 683.38 572.94 740.98 183.4 1124.67"/>
      <polygon class="cls-3" points="518.07 683.38 1000 1189.4 1000 936.39 518.07 683.38"/>
    </g>
    <g>
      <polygon class="cls-4" points="1816.6 1124.67 1481.93 683.38 1427.06 740.98 1816.6 1124.67"/>
      <polygon class="cls-2" points="1481.93 683.38 1000 1189.4 1000 936.39 1481.93 683.38"/>
    </g>
    <g>
      <polygon class="cls-1" points="602.16 1128.33 597.14 1039.14 687.43 1049.71 692.46 1138.9 602.16 1128.33"/>
      <polygon class="cls-1" points="608.33 1237.8 603.31 1148.61 693.6 1159.17 698.62 1248.36 608.33 1237.8"/>
      <polygon class="cls-1" points="489.8 1115.18 484.78 1025.99 575.07 1036.56 580.09 1125.75 489.8 1115.18"/>
      <polygon class="cls-1" points="495.97 1224.65 490.95 1135.46 581.24 1146.02 586.26 1235.21 495.97 1224.65"/>
    </g>
    <g>
      <polygon class="cls-1" points="1397.45 1128.81 1398.51 1039.48 1308.77 1054.05 1307.72 1143.38 1397.45 1128.81"/>
      <polygon class="cls-1" points="1396.16 1238.44 1397.21 1149.11 1307.48 1163.68 1306.43 1253.01 1396.16 1238.44"/>
      <polygon class="cls-1" points="1509.12 1110.67 1510.17 1021.35 1420.44 1035.92 1419.39 1125.24 1509.12 1110.67"/>
      <polygon class="cls-1" points="1507.83 1220.3 1508.88 1130.98 1419.15 1145.55 1418.09 1234.87 1507.83 1220.3"/>
    </g>
  </g>
</svg>