<?xml version="1.0" encoding="UTF-8"?>
<svg id="Layer_1" data-name="Layer 1" xmlns="http://www.w3.org/2000/svg" viewBox="0 0 2000 2000">
  <defs>
    <style>
      .cls-1 {
        fill: #e5f5fd;
      }

      .cls-1, .cls-2, .cls-3, .cls-4 {
        stroke-width: 0px;
      }

      .cls-2 {
        fill: #bab7c4;
      }

      .cls-3 {
        fill: #a3a0b1;
      }

      .cls-4 {
        fill: #e7f6fd;
      }
    </style>
  </defs>
  <g>
    <path class="cls-2" d="M259.42,1386.94c0,19.03-13.45,34.44-34.23,35.58h-5.9c-16.65,0-30.3-11.69-33.61-27.41l21.72-8.17c.31,7.34,6.41,13.13,13.76,13.13h2.28c7.34,0,13.45-5.79,13.75-13.13v-42.61h22.24v42.61Z"/>
    <path class="cls-2" d="M312.37,1404.01h-25.65l-5.89,14.89h-22.24l29.68-74.47h22.55l29.68,74.47h-22.24l-5.9-14.89ZM306.37,1389.11l-6.83-17.17-6.83,17.17h13.65Z"/>
    <path class="cls-2" d="M377.42,1388.91v29.99h-24.3v-29.89l-29.79-44.58h24.1l17.79,26.58,17.79-26.58h24.1l-29.68,44.47Z"/>
    <path class="cls-2" d="M443.71,1404.01h-25.65l-5.89,14.89h-22.24l29.68-74.47h22.55l29.68,74.47h-22.24l-5.9-14.89ZM437.71,1389.11l-6.83-17.17-6.83,17.17h13.65Z"/>
    <path class="cls-2" d="M627.39,1344.43v74.47h-22.44v-50.88l-15.2,50.88h-18.72l-15.2-50.88v50.88h-22.44v-74.47h33.72l13.24,43.54,13.24-43.54h33.82Z"/>
    <path class="cls-2" d="M687.26,1404.01h-25.65l-5.89,14.89h-22.24l29.68-74.47h22.55l29.68,74.47h-22.24l-5.9-14.89ZM681.27,1389.11l-6.83-17.17-6.83,17.17h13.65Z"/>
    <path class="cls-2" d="M795.96,1344.43v74.47h-22.13v-29.79h-29.89v29.79h-22.44v-74.47h22.44v29.79h29.89v-29.79h22.13Z"/>
    <path class="cls-2" d="M855.84,1404.01h-25.65l-5.89,14.89h-22.24l29.68-74.47h22.55l29.68,74.47h-22.24l-5.9-14.89ZM849.84,1389.11l-6.83-17.17-6.83,17.17h13.65Z"/>
    <path class="cls-2" d="M924.61,1344.33c19.75.31,36.2,16.86,36.2,37.34s-15.41,35.99-36.1,37.13l-34.65.1v-74.47l34.54-.1ZM923.16,1400.28c9.93-.31,18.2-8.17,18.2-18.62s-7.55-17.89-18.2-18.72h-10.65v37.34h10.65Z"/>
    <path class="cls-2" d="M990.28,1359.33v14.89h29.99v14.89h-29.99v14.79h37.44v15h-59.57v-74.47h59.57v14.89h-37.44Z"/>
    <path class="cls-2" d="M1117.7,1344.43l-29.89,74.47h-26.17l-29.79-74.47h25.96l16.96,44.99,16.86-44.99h26.06Z"/>
    <path class="cls-2" d="M1253.79,1344.43v74.47h-22.13v-29.79h-29.89v29.79h-22.44v-74.47h22.44v29.79h29.89v-29.79h22.13Z"/>
    <path class="cls-2" d="M1313.67,1404.01h-25.65l-5.89,14.89h-22.24l29.68-74.47h22.55l29.68,74.47h-22.24l-5.9-14.89ZM1307.67,1389.11l-6.83-17.17-6.83,17.17h13.65Z"/>
    <path class="cls-2" d="M1370.24,1396.35h-.21v22.55h-22.13v-74.47h37.65c13.75.31,25.24,11.58,25.24,25.96,0,10.24-6.1,20.06-16.13,24.2l20.06,24.3h-25.75l-18.72-22.55ZM1370.04,1361.81v17.27h12.41c4.55,0,8.48-4.14,8.48-8.69s-3.62-8.27-8.48-8.58h-12.41Z"/>
    <path class="cls-2" d="M1455.36,1344.33c19.75.31,36.2,16.86,36.2,37.34s-15.41,35.99-36.1,37.13l-34.65.1v-74.47l34.54-.1ZM1453.91,1400.28c9.93-.31,18.2-8.17,18.2-18.62s-7.55-17.89-18.2-18.72h-10.65v37.34h10.65Z"/>
    <path class="cls-2" d="M1603.97,1344.43l-18.41,74.47h-23.99l-13.24-43.64-13.24,43.64h-24.51l-18.41-74.47h24.2l10.24,41.16,12.31-41.16h18.82l12,40.34,10.03-40.34h24.2Z"/>
    <path class="cls-2" d="M1647.3,1404.01h-25.65l-5.89,14.89h-22.24l29.68-74.47h22.55l29.68,74.47h-22.24l-5.9-14.89ZM1641.3,1389.11l-6.83-17.17-6.83,17.17h13.65Z"/>
    <path class="cls-2" d="M1703.87,1396.35h-.21v22.55h-22.13v-74.47h37.65c13.75.31,25.24,11.58,25.24,25.96,0,10.24-6.1,20.06-16.13,24.2l20.06,24.3h-25.75l-18.72-22.55ZM1703.67,1361.81v17.27h12.41c4.55,0,8.48-4.14,8.48-8.69s-3.62-8.27-8.48-8.58h-12.41Z"/>
    <path class="cls-2" d="M1776.58,1359.33v14.89h29.99v14.89h-29.99v14.79h37.44v15h-59.57v-74.47h59.57v14.89h-37.44Z"/>
  </g>
  <g>
    <path class="cls-4" d="M1532.55,696.91l-1.62.02c-5.79.09-10.6-4.58-10.68-10.36l-.07-4.67-.62-40.47c-.66.14-1.34.22-2.03.23l-17.89.27c-1.62.02-3.16-.32-4.54-.96-3.57-1.65-6.08-5.23-6.14-9.41l-.11-7.05-10.31.16c-.51,0-1.01-.02-1.5-.09l.19,12.32c.09,5.79-4.58,10.6-10.36,10.68l-23.45.36c-5.79.09-10.6-4.58-10.68-10.36l-.94-61.5c-.09-5.79,4.58-10.6,10.36-10.68l23.45-.36c5.79-.09,10.6,4.58,10.68,10.36l.19,12.32c.49-.08.99-.12,1.5-.13l10.31-.16-.11-7.05c-.09-5.79,4.58-10.6,10.36-10.68l17.89-.27c1.13-.02,2.22.15,3.24.46,1.7-3.39,5.2-5.76,9.24-5.82l36.97-.56c5.79-.09,10.6,4.58,10.68,10.36l.08,5.37c4.31-.61,8.7-1.02,13.17-1.02,98.48,0,106.01,92.3,106.89,150.42.03,2.02,0,4.04-.08,6.03-18.72-30.99-18.29-97.68-91.81-97.68-9.44,0-18.56,1.53-27.23,3.99l.68,44.69c.09,5.79-4.58,10.6-10.36,10.68l-1.62.02-33.74.52Z"/>
    <path class="cls-4" d="M1530.13,709.28h39.06c1.43,0,2.6,1.16,2.6,2.6v123.32h-44.26v-123.32c0-1.43,1.16-2.6,2.6-2.6Z"/>
    <g>
      <polygon class="cls-4" points="183.4 1124.67 518.07 683.38 572.94 740.98 183.4 1124.67"/>
      <polygon class="cls-3" points="518.07 683.38 1000 1189.4 1000 936.39 518.07 683.38"/>
    </g>
    <g>
      <polygon class="cls-4" points="1816.6 1124.67 1481.93 683.38 1427.06 740.98 1816.6 1124.67"/>
      <polygon class="cls-2" points="1481.93 683.38 1000 1189.4 1000 936.39 1481.93 683.38"/>
    </g>
    <g>
      <polygon class="cls-1" points="602.16 1128.33 597.14 1039.14 687.43 1049.71 692.46 1138.9 602.16 1128.33"/>
      <polygon class="cls-1" points="608.33 1237.8 603.31 1148.61 693.6 1159.17 698.62 1248.36 608.33 1237.8"/>
      <polygon class="cls-1" points="489.8 1115.18 484.78 1025.99 575.07 1036.56 580.09 1125.75 489.8 1115.18"/>
      <polygon class="cls-1" points="495.97 1224.65 490.95 1135.46 581.24 1146.02 586.26 1235.21 495.97 1224.65"/>
    </g>
    <g>
      <polygon class="cls-1" points="1397.45 1128.81 1398.51 1039.48 1308.77 1054.05 1307.72 1143.38 1397.45 1128.81"/>
      <polygon class="cls-1" points="1396.16 1238.44 1397.21 1149.11 1307.48 1163.68 1306.43 1253.01 1396.16 1238.44"/>
      <polygon class="cls-1" points="1509.12 1110.67 1510.17 1021.35 1420.44 1035.92 1419.39 1125.24 1509.12 1110.67"/>
      <polygon class="cls-1" points="1507.83 1220.3 1508.88 1130.98 1419.15 1145.55 1418.09 1234.87 1507.83 1220.3"/>
    </g>
  </g>
</svg>